<svg id="Camada_1" data-name="Camada 1" xmlns="http://www.w3.org/2000/svg" viewBox="0 0 349.68 205.33"><defs><style>.cls-1{fill:#3a3a3a;}.cls-2,.cls-6{fill:#616467;}.cls-2,.cls-3,.cls-5,.cls-6{fill-rule:evenodd;}.cls-3{fill:#2f2e2e;}.cls-4,.cls-5{fill:#212121;}.cls-6{stroke:#87ff6a;stroke-miterlimit:10;stroke-width:3px;}</style></defs><title>laptop</title><g id="b2-desktop-1"><g id="laptop-animation-large"><g id="laptop-large"><rect id="outer" class="cls-1" x="29.27" width="289.14" height="190.86" rx="3.42"/><polygon id="screen" class="cls-2" points="48.07 175.43 299.93 175.43 299.93 17.61 48.07 17.61 48.07 175.43"/><g id="base"><path class="cls-3" d="M.07,191.56a.77.77,0,0,1,.78-.85h348.2a.66.66,0,0,1,.68.83s-2.21,13.79-16.7,13.79H15C.36,205.33.07,191.56.07,191.56Z" transform="translate(-0.06)"/><rect id="indent" class="cls-4" x="155.3" y="191.04" width="39.51" height="2.66"/></g><path id="rounded-rectangle" class="cls-5" d="M170.73,9h8.47a.76.76,0,0,1,.76.76h0a.76.76,0,0,1-.76.75h-8.47a.76.76,0,0,1-.76-.75h0A.76.76,0,0,1,170.73,9Z" transform="translate(-0.06)"/></g></g></g><polygon class="cls-6" points="214.12 108.71 213.29 110.94 212.33 113.12 211.25 115.23 210.05 117.29 208.74 119.27 207.31 121.17 205.77 122.98 204.13 124.71 202.4 126.33 200.57 127.86 198.66 129.27 196.67 130.58 194.61 131.76 192.49 132.83 190.3 133.77 188.07 134.59 185.79 135.27 183.48 135.82 181.14 136.24 178.78 136.52 176.4 136.67 174.03 136.68 171.65 136.55 169.29 136.29 166.94 135.89 164.63 135.35 162.34 134.69 160.1 133.89 157.91 132.96 155.78 131.91 153.71 130.74 151.71 129.45 149.79 128.05 147.95 126.54 146.21 124.93 144.56 123.22 143 121.41 141.56 119.52 140.23 117.55 139.01 115.51 137.92 113.4 136.94 111.23 136.1 109.01 135.38 106.74 134.79 104.44 134.34 102.1 134.03 99.75 133.84 97.38 133.8 95 133.9 92.62 134.13 90.25 134.49 87.91 134.99 85.58 135.63 83.29 136.39 81.04 137.29 78.83 138.31 76.69 139.45 74.6 140.71 72.58 142.08 70.64 143.56 68.78 145.15 67.01 146.84 65.34 148.62 63.76 150.49 62.29 152.44 60.93 154.46 59.68 156.56 58.56 158.71 57.55 160.92 56.67 163.18 55.92 165.47 55.3 167.8 54.82 170.15 54.47 172.52 54.25 174.9 54.18 177.28 54.23 179.65 54.43 182 54.76 184.33 55.23 186.63 55.83 188.9 56.56 191.11 57.43 193.27 58.41 195.38 59.53 197.41 60.76 199.37 62.1 201.25 63.56 203.04 65.12 204.75 66.78 206.35 68.54 207.84 70.39 209.23 72.32 210.51 74.33 211.66 76.4 212.7 78.54 213.61 80.74 214.39 82.99 215.04 85.27 215.56 87.59 215.95 89.94 216.2 92.31 216.31 94.68 216.28 97.06 216.12 99.43 215.82 101.79 215.39 104.13 214.82 106.44 214.12 108.71"/><path class="cls-6" d="M191.45,86.91" transform="translate(-0.06)"/><path class="cls-6" d="M170.72,102.09" transform="translate(-0.06)"/><path class="cls-6" d="M163.36,95.09" transform="translate(-0.06)"/><polyline class="cls-6" points="162.44 93.94 170.5 102.42 189.51 87.03"/></svg>